# Blender v2.76 (sub 0) OBJ File: 'AnimalCrossingItem.blend'
# www.blender.org
mtllib fg_megaphone.mtl
o vsn_mesh_0__mesh_0_.002
v 7.315665 1.284415 -5.564268
v 8.534259 1.894166 -4.492508
v 8.114247 0.683712 -4.147632
v 8.240430 2.747434 -5.465211
v 7.226434 -0.174856 -4.632607
v 7.404889 2.743686 -6.495937
v 6.390893 -0.178604 -5.663332
v 6.517082 1.885116 -6.980904
v 6.097064 0.674663 -6.636036
v 7.247072 1.089852 -2.207631
v 7.925535 3.045151 -2.764726
v 6.101215 4.417427 -6.000957
v 7.450911 4.423481 -4.335969
v 4.463257 -0.303094 -4.656009
v 5.812950 -0.297029 -2.991032
v 4.667096 3.030535 -6.784348
v 3.988634 1.075237 -6.227252
v -5.416599 8.635394 4.730199
v -4.230447 8.640715 6.193440
v -4.156249 9.854233 5.418671
v -4.999480 7.424079 6.111058
v -4.820343 10.353779 4.240606
v -6.012855 6.917012 5.219792
v -5.833724 9.846708 3.349332
v -6.676955 7.416554 4.041719
v -6.602751 8.630073 3.266958
v 1.779900 5.994427 4.225214
v 1.372147 13.367039 6.830174
v 1.042381 7.973615 10.273601
v 1.942673 8.656463 2.525651
v 0.092919 3.325553 4.044508
v 4.305097 5.201714 0.266358
v 3.605429 3.185302 0.840864
v -1.579380 15.587219 1.594342
v -2.375552 2.566338 9.907459
v 2.126493 1.755076 0.032989
v 3.815636 6.623110 -1.353989
v 0.485881 9.752278 -0.058609
v -6.083258 13.333600 -2.366845
v -2.130069 2.213231 2.089381
v -6.879428 0.312716 5.946281
v -1.737114 8.639955 -2.013746
v -9.501182 7.926319 -2.732970
v 2.423763 6.616867 -3.071008
v -3.586868 3.309047 -0.494888
v -9.830964 2.532885 0.710446
v 0.734626 1.748832 -1.684022
v -3.424093 5.971083 -2.194449
v 0.944833 5.186639 -3.878874
v 0.245159 3.170228 -3.304377
v 6.537160 3.181523 2.746685
v 7.367725 1.606227 -1.032789
v 8.953325 3.269492 5.259976
v 3.853549 3.080462 0.195591
v 6.511105 4.263166 5.773307
v 6.965093 4.414804 2.395304
v 6.817595 5.146456 5.521645
v 9.259815 4.152782 5.008314
v 7.917100 3.189500 -1.483888
v 4.457861 4.822063 -0.300618
v -0.375180 13.510758 7.484101
v -0.671977 8.656677 10.583180
v 1.372147 13.367039 6.830174
v -1.579380 15.587219 1.594342
v -3.031576 15.508920 2.771826
v 1.042381 7.973615 10.273601
v -3.748110 3.790126 10.253661
v -6.083258 13.333600 -2.366845
v -2.375552 2.566338 9.907459
v -7.801621 1.761867 6.688572
v -7.085077 13.480659 -0.793249
v -9.501182 7.926319 -2.732970
v -6.879428 0.312716 5.946281
v -10.458010 3.760027 1.976309
v -10.161170 8.614110 -1.122722
v -9.830964 2.532885 0.710446
v 2.126493 1.755076 0.032989
v 5.812950 -0.297029 -2.991032
v 3.605429 3.185302 0.840864
v 4.463257 -0.303094 -4.656009
v 0.734626 1.748832 -1.684022
v 7.247072 1.089852 -2.207631
v 3.988634 1.075237 -6.227252
v 0.245159 3.170228 -3.304377
v 4.667096 3.030535 -6.784348
v 0.944833 5.186639 -3.878874
v 6.101215 4.417427 -6.000957
v 2.423763 6.616867 -3.071008
v 7.450911 4.423481 -4.335969
v 3.815636 6.623110 -1.353989
v 7.925535 3.045151 -2.764726
v 4.305097 5.201714 0.266358
v -0.671977 8.656677 10.583180
v -0.375180 13.510758 7.484101
v 0.354315 6.343000 3.712479
v -0.803938 4.510602 3.588407
v -3.748110 3.790126 10.253661
v 0.466069 8.170704 2.545588
v -3.031576 15.508920 2.771826
v -2.330207 3.746901 2.246043
v -0.534142 8.923079 0.771270
v -7.085077 13.480659 -0.793249
v -7.801621 1.761867 6.688572
v -3.330420 4.499268 0.471729
v -2.060414 8.159369 -0.571090
v -10.161170 8.614110 -1.122722
v -10.458010 3.760027 1.976309
v -3.218660 6.326972 -0.695154
v 0.466069 8.170704 2.545588
v -0.534142 8.923079 0.771270
v -4.156249 9.854233 5.418671
v -4.230447 8.640715 6.193440
v 0.354315 6.343000 3.712479
v -4.820343 10.353779 4.240606
v -2.060414 8.159369 -0.571090
v -4.999480 7.424079 6.111058
v -5.833724 9.846708 3.349332
v -3.218660 6.326972 -0.695154
v -0.803938 4.510602 3.588407
v -6.012855 6.917012 5.219792
v -6.602751 8.630073 3.266958
v -3.330420 4.499268 0.471729
v -2.330207 3.746901 2.246043
v -6.676955 7.416554 4.041719
v 8.706657 1.290879 -0.099321
v 7.925535 3.045151 -2.764726
v 9.323442 3.068424 -0.605771
v 7.247072 1.089852 -2.207631
v 3.605429 3.185302 0.840864
v 8.706657 1.290879 -0.099321
v 9.323442 3.068424 -0.605771
v 9.323442 3.068424 -0.605771
v 4.305097 5.201714 0.266358
v 3.605429 3.185302 0.840864
v 7.247072 1.089852 -2.207631
v 8.706657 1.290879 -0.099321
v 4.305097 5.201714 0.266358
v 9.323442 3.068424 -0.605771
v 7.925535 3.045151 -2.764726
vt 1.000000 0.252965
vt 1.085690 0.252965
vt 1.060590 0.312367
vt 1.060590 0.193564
vt 1.000000 0.336972
vt 1.000000 0.168959
vt 0.939411 0.312367
vt 0.939411 0.193564
vt 0.914314 0.252965
vt 0.006737 -0.474651
vt -0.148323 0.014221
vt 0.161798 0.014221
vt 0.213733 0.244189
vt -0.200258 0.244189
vt -0.673209 0.986888
vt -0.595231 0.518785
vt -0.673209 0.518785
vt -0.595231 0.986888
vt -0.517253 0.518785
vt -0.517253 0.986888
vt 0.246596 0.254110
vt 0.496761 0.494324
vt 0.496761 0.013896
vt 0.246596 0.494324
vt 0.246596 0.013896
vt 0.496761 0.254110
vt 0.305581 0.949640
vt 0.360131 0.949640
vt 0.305581 1.004790
vt 0.251031 1.004790
vt 0.251031 0.949640
vt 0.360131 1.004790
vt 0.351326 1.005480
vt 0.351326 0.755476
vt 0.482247 1.005480
vt 0.293139 0.755476
vt 0.293139 1.005480
vt 0.482247 0.755476
vt 0.264046 0.755476
vt 0.264046 1.005480
vt 1.421150 1.000000
vt 1.297800 1.305330
vt 1.099850 1.000000
vt 1.070600 0.927609
vt 1.297800 0.694667
vt 1.070600 1.072390
vt 1.000000 1.431810
vt 1.000000 0.897624
vt 1.000000 1.102380
vt 0.702202 1.305330
vt 1.000000 0.568194
vt 0.929395 0.927609
vt 0.929395 1.072390
vt 0.578850 1.000000
vt 0.702202 0.694667
vt 0.900150 1.000000
vt 1.157360 0.407236
vt 1.000000 0.471138
vt 1.222540 0.252965
vt 0.842644 0.407236
vt 0.777465 0.252965
vt 1.157360 0.098694
vt 0.842644 0.098694
vt 1.000000 0.034793
vt 0.264013 0.013896
vt 0.496761 0.498107
vt 0.264013 0.498107
vt 0.160601 0.451427
vt -0.198129 0.392833
vt -0.018764 0.363536
vt 0.160601 0.334240
vt 0.016751 0.601622
vt 0.016751 1.005480
vt 0.249499 1.005480
vn -0.709400 0.409600 0.573600
vn 0.709400 -0.409600 -0.573600
vn 0.987500 -0.123400 -0.097400
vn 0.844900 -0.534500 0.019700
vn 0.888300 0.164700 -0.428800
vn 0.544500 -0.825800 -0.146500
vn 0.606600 0.161100 -0.778500
vn 0.263900 -0.826600 -0.497100
vn 0.308200 -0.130200 -0.942400
vn 0.166500 -0.538400 -0.826000
vn 0.745600 -0.501900 0.438300
vn 0.958200 0.110700 0.263800
vn 0.393800 0.529000 -0.751700
vn 0.810800 0.537700 -0.231200
vn -0.114300 -0.935500 -0.334400
vn 0.299700 -0.935200 0.188400
vn -0.046400 0.095700 -0.994300
vn -0.256000 -0.508400 -0.822200
vn 0.897100 -0.198900 0.394500
vn 0.971100 0.214100 -0.105500
vn 0.941600 -0.268900 0.202800
vn 0.931300 0.362400 0.037000
vn 0.541400 -0.761100 0.357200
vn 0.891200 0.204600 0.404900
vn 0.661100 -0.458600 0.593900
vn 0.706800 0.412900 -0.574400
vn 0.635500 -0.753100 0.170000
vn 0.172900 -0.928100 0.329700
vn 0.728500 0.673200 -0.126500
vn 0.623600 0.595000 -0.507000
vn 0.303400 0.211100 -0.929200
vn 0.071500 -0.996000 -0.053700
vn 0.232100 -0.955000 -0.184700
vn 0.153200 0.361600 -0.919600
vn -0.002600 -0.273100 -0.961900
vn 0.268100 0.672800 -0.689400
vn -0.237700 -0.764900 -0.598700
vn -0.032200 -0.756200 -0.653600
vn -0.287600 -0.928900 -0.233100
vn -0.204000 -0.202100 -0.957900
vn -0.220300 0.203300 -0.954000
vn -0.450600 -0.460200 -0.764900
vn -0.739200 -0.508800 0.441100
vn 0.483600 -0.868000 0.112700
vn 0.498600 -0.612400 0.613500
vn -0.666500 -0.226900 0.710100
vn -0.651900 -0.160400 0.741100
vn -0.224600 0.974200 0.018600
vn -0.306700 0.834600 0.457600
vn 0.853300 0.409900 0.322200
vn 0.906600 0.350900 -0.234600
vn -0.285000 0.872500 0.396900
vn 0.281000 0.761900 0.583500
vn 0.245800 0.185700 0.951300
vn -0.034300 0.999100 0.024100
vn -0.119300 -0.391900 0.912200
vn -0.515400 0.758400 -0.399000
vn -0.600500 -0.632600 0.489100
vn -0.880600 0.180700 -0.438100
vn -0.915800 -0.395400 -0.070300
vn -0.915800 -0.395500 -0.070300
vn -0.039500 -0.848500 0.527600
vn 0.232500 -0.649400 0.724100
vn -0.521400 -0.850700 -0.066800
vn -0.690800 -0.358600 -0.627800
vn -0.448600 0.339500 -0.826700
vn 0.063400 0.834700 -0.547000
vn 0.545300 0.836900 0.047500
vn 0.680100 0.640600 0.356500
vn -0.938100 0.260600 -0.227900
vn -0.968400 -0.233600 0.087600
vn -0.625000 0.756000 -0.194300
vn -0.697900 -0.437000 0.567300
vn -0.212300 0.962500 0.168600
vn -0.285300 -0.230500 0.930300
vn 0.058100 0.759100 0.648300
vn 0.027900 0.264900 0.963800
vn 0.540900 0.706500 0.456300
vn 0.193400 0.967900 -0.160300
vn 0.502100 0.071300 0.861800
vn -0.337000 0.702500 -0.626800
vn 0.099600 -0.565400 0.818700
vn -0.739500 0.065700 -0.669900
vn -0.430800 -0.830900 0.352200
vn -0.778400 -0.569400 -0.264400
vn 0.768600 -0.407200 -0.493300
vn 0.244500 0.186300 0.951600
vn -0.286900 -0.914300 0.285800
vn 0.345700 0.908800 -0.233600
usemtl m_fg_megaphone_mat.001
s off
f 18/1/1 19/2/1 20/3/1
f 18/1/1 21/4/1 19/2/1
f 18/1/1 20/3/1 22/5/1
f 18/1/1 23/6/1 21/4/1
f 18/1/1 22/5/1 24/7/1
f 18/1/1 25/8/1 23/6/1
f 18/1/1 24/7/1 26/9/1
f 18/1/1 26/9/1 25/8/1
s 1
f 1/10/2 2/11/3 3/12/4
f 1/10/2 4/12/5 2/11/3
f 1/10/2 3/12/4 5/11/6
f 1/10/2 6/11/7 4/12/5
f 1/10/2 5/11/6 7/12/8
f 1/10/2 8/12/9 6/11/7
f 1/10/2 7/12/8 9/11/10
f 1/10/2 9/11/10 8/12/9
f 2/11/3 10/13/11 3/12/4
f 2/11/3 4/12/5 11/14/12
f 2/11/3 11/14/12 10/13/11
f 3/12/4 10/13/11 5/11/6
f 6/11/7 8/12/9 12/14/13
f 6/11/7 13/13/14 4/12/5
f 6/11/7 12/14/13 13/13/14
f 13/13/14 11/14/12 4/12/5
f 7/12/8 14/13/15 9/11/10
f 7/12/8 5/11/6 15/14/16
f 7/12/8 15/14/16 14/13/15
f 15/14/16 5/11/6 10/13/11
f 8/12/9 16/13/17 12/14/13
f 8/12/9 9/11/10 16/13/17
f 14/13/15 17/14/18 9/11/10
f 9/11/10 17/14/18 16/13/17
f 27/15/19 28/16/20 29/17/21
f 27/15/19 30/18/22 28/16/20
f 27/15/19 29/17/21 31/18/23
f 27/15/19 32/16/24 30/18/22
f 27/15/19 31/18/23 33/17/25
f 27/15/19 33/17/25 32/16/24
f 28/16/20 30/18/22 34/19/26
f 29/17/21 35/16/27 31/18/23
f 33/17/25 31/18/23 36/16/28
f 32/16/24 37/19/29 30/18/22
f 34/19/26 30/18/22 38/20/30
f 34/19/26 38/20/30 39/16/31
f 30/18/22 37/19/29 38/20/30
f 35/16/27 40/20/32 31/18/23
f 35/16/27 41/19/33 40/20/32
f 31/18/23 40/20/32 36/16/28
f 39/16/31 38/20/30 42/18/34
f 39/16/31 42/18/34 43/17/35
f 37/19/29 44/16/36 38/20/30
f 38/20/30 44/16/36 42/18/34
f 41/19/33 45/18/37 40/20/32
f 41/19/33 46/16/38 45/18/37
f 36/16/28 40/20/32 47/19/39
f 40/20/32 45/18/37 47/19/39
f 43/17/35 42/18/34 48/15/40
f 43/17/35 48/15/40 46/16/38
f 46/16/38 48/15/40 45/18/37
f 44/16/36 49/17/41 42/18/34
f 42/18/34 49/17/41 48/15/40
f 47/19/39 45/18/37 50/16/42
f 50/16/42 48/15/40 49/17/41
f 50/16/42 45/18/37 48/15/40
f 51/21/43 52/22/44 53/23/45
f 51/21/43 54/24/46 52/22/44
f 51/21/43 53/23/45 55/25/47
f 51/21/43 56/26/48 54/24/46
f 51/21/43 55/25/47 57/23/49
f 51/21/43 57/23/49 56/26/48
f 55/25/47 53/23/45 57/23/49
f 52/22/44 58/25/50 53/23/45
f 52/22/44 59/24/51 58/25/50
f 58/25/50 56/26/48 57/23/49
f 58/25/50 57/23/49 53/23/45
f 58/25/50 59/24/51 56/26/48
f 54/24/46 56/26/48 60/22/52
f 60/22/52 56/26/48 59/24/51
f 61/27/53 62/28/54 63/29/53
f 61/27/53 63/29/53 64/30/55
f 61/27/53 64/30/55 65/31/55
f 62/28/54 66/32/54 63/29/53
f 62/28/54 67/27/56 66/32/54
f 64/30/55 68/29/57 65/31/55
f 67/27/56 69/29/56 66/32/54
f 67/27/56 70/31/58 69/29/56
f 68/29/57 71/27/57 65/31/55
f 68/29/57 72/32/59 71/27/57
f 70/31/58 73/30/58 69/29/56
f 70/31/58 74/27/60 73/30/58
f 72/32/59 75/28/59 71/27/57
f 72/32/59 76/29/61 75/28/59
f 76/29/61 73/30/58 74/27/60
f 76/29/61 74/27/60 75/28/59
f 77/33/62 78/34/62 79/35/63
f 77/33/62 80/36/64 78/34/62
f 77/33/62 81/37/64 80/36/64
f 79/35/63 78/34/62 82/38/63
f 81/37/64 83/39/65 80/36/64
f 81/37/64 84/40/65 83/39/65
f 84/40/65 85/39/66 83/39/65
f 84/40/65 86/40/66 85/39/66
f 86/40/66 87/36/67 85/39/66
f 86/40/66 88/37/67 87/36/67
f 88/37/67 89/34/68 87/36/67
f 88/37/67 90/33/68 89/34/68
f 90/33/68 91/38/69 89/34/68
f 90/33/68 92/35/69 91/38/69
f 93/41/70 94/42/71 95/43/70
f 93/41/70 95/43/70 96/44/72
f 93/41/70 96/44/72 97/45/72
f 94/42/71 98/46/71 95/43/70
f 94/42/71 99/47/73 98/46/71
f 96/44/72 100/48/74 97/45/72
f 99/47/73 101/49/73 98/46/71
f 99/47/73 102/50/75 101/49/73
f 100/48/74 103/51/74 97/45/72
f 100/48/74 104/52/76 103/51/74
f 102/50/75 105/53/75 101/49/73
f 102/50/75 106/54/77 105/53/75
f 104/52/76 107/55/76 103/51/74
f 104/52/76 108/56/77 107/55/76
f 108/56/77 106/54/77 107/55/76
f 108/56/77 105/53/75 106/54/77
f 109/57/78 110/58/79 111/3/78
f 109/57/78 111/3/78 112/2/80
f 109/57/78 112/2/80 113/59/80
f 110/58/79 114/5/79 111/3/78
f 110/58/79 115/60/81 114/5/79
f 112/2/80 116/4/82 113/59/80
f 115/60/81 117/7/81 114/5/79
f 115/60/81 118/61/83 117/7/81
f 116/4/82 119/62/82 113/59/80
f 116/4/82 120/6/84 119/62/82
f 118/61/83 121/9/83 117/7/81
f 118/61/83 122/63/85 121/9/83
f 120/6/84 123/64/84 119/62/82
f 120/6/84 124/8/85 123/64/84
f 124/8/85 122/63/85 123/64/84
f 124/8/85 121/9/83 122/63/85
f 125/65/86 126/66/86 127/67/86
f 125/65/86 128/23/86 126/66/86
f 129/68/87 130/69/87 131/70/87
f 129/68/87 132/70/87 133/71/87
f 134/72/88 135/73/88 136/74/88
f 137/72/89 138/74/89 139/73/89
